<svg xmlns="http://www.w3.org/2000/svg" viewBox="0 0 720 380" width="720" height="380" font-family="-apple-system,Segoe UI,Roboto,Helvetica,Arial,sans-serif"><rect width="720" height="380" fill="white"/><text x="70" y="26" font-size="18" font-weight="600" fill="#222222">End-to-end latency by query shape (500k rows)</text><line x1="70" y1="316" x2="696" y2="316" stroke="#d0d0d0" stroke-width="1"/><text x="62" y="320" font-size="11" fill="#666666" text-anchor="end">0</text><line x1="70" y1="264" x2="696" y2="264" stroke="#d0d0d0" stroke-width="1"/><text x="62" y="268" font-size="11" fill="#666666" text-anchor="end">122.1</text><line x1="70" y1="212" x2="696" y2="212" stroke="#d0d0d0" stroke-width="1"/><text x="62" y="216" font-size="11" fill="#666666" text-anchor="end">244.2</text><line x1="70" y1="160" x2="696" y2="160" stroke="#d0d0d0" stroke-width="1"/><text x="62" y="164" font-size="11" fill="#666666" text-anchor="end">366.3</text><line x1="70" y1="108" x2="696" y2="108" stroke="#d0d0d0" stroke-width="1"/><text x="62" y="112" font-size="11" fill="#666666" text-anchor="end">488.4</text><line x1="70" y1="56" x2="696" y2="56" stroke="#d0d0d0" stroke-width="1"/><text x="62" y="60" font-size="11" fill="#666666" text-anchor="end">610.4</text><line x1="70" y1="56" x2="70" y2="316" stroke="#333333" stroke-width="1.5"/><line x1="70" y1="316" x2="696" y2="316" stroke="#333333" stroke-width="1.5"/><text x="16" y="186" font-size="12" fill="#666666" text-anchor="middle" transform="rotate(-90 16 186)">latency (ms)</text><rect x="81" y="290" width="103" height="26" fill="#0072B2"/><text x="132" y="285" font-size="11" fill="#222222" text-anchor="middle">63.4ms</text><text x="132" y="334" font-size="11" fill="#222222" text-anchor="middle">instant</text><rect x="206" y="90" width="103" height="226" fill="#E69F00"/><text x="257" y="85" font-size="11" fill="#222222" text-anchor="middle">531ms</text><text x="257" y="334" font-size="11" fill="#222222" text-anchor="middle">rate range</text><rect x="331" y="306" width="103" height="10" fill="#009E73"/><text x="382" y="301" font-size="11" fill="#222222" text-anchor="middle">25.6ms</text><text x="382" y="334" font-size="11" fill="#222222" text-anchor="middle">series</text><rect x="456" y="307" width="103" height="9" fill="#D55E00"/><text x="507" y="302" font-size="11" fill="#222222" text-anchor="middle">23.0ms</text><text x="507" y="334" font-size="11" fill="#222222" text-anchor="middle">TraceQL</text><rect x="581" y="307" width="103" height="9" fill="#CC79A7"/><text x="632" y="302" font-size="11" fill="#222222" text-anchor="middle">22.7ms</text><text x="632" y="334" font-size="11" fill="#222222" text-anchor="middle">LogQL</text></svg>
