<svg xmlns="http://www.w3.org/2000/svg" viewBox="0 0 720 380" width="720" height="380" font-family="-apple-system,Segoe UI,Roboto,Helvetica,Arial,sans-serif"><rect width="720" height="380" fill="white"/><text x="70" y="26" font-size="18" font-weight="600" fill="#222222">Rate range query: wall by strategy</text><line x1="70" y1="316" x2="696" y2="316" stroke="#d0d0d0" stroke-width="1"/><text x="62" y="320" font-size="11" fill="#666666" text-anchor="end">0</text><line x1="70" y1="264" x2="696" y2="264" stroke="#d0d0d0" stroke-width="1"/><text x="62" y="268" font-size="11" fill="#666666" text-anchor="end">210.5</text><line x1="70" y1="212" x2="696" y2="212" stroke="#d0d0d0" stroke-width="1"/><text x="62" y="216" font-size="11" fill="#666666" text-anchor="end">420.9</text><line x1="70" y1="160" x2="696" y2="160" stroke="#d0d0d0" stroke-width="1"/><text x="62" y="164" font-size="11" fill="#666666" text-anchor="end">631.4</text><line x1="70" y1="108" x2="696" y2="108" stroke="#d0d0d0" stroke-width="1"/><text x="62" y="112" font-size="11" fill="#666666" text-anchor="end">841.9</text><line x1="70" y1="56" x2="696" y2="56" stroke="#d0d0d0" stroke-width="1"/><text x="62" y="60" font-size="11" fill="#666666" text-anchor="end">1k</text><line x1="70" y1="56" x2="70" y2="316" stroke="#333333" stroke-width="1.5"/><line x1="70" y1="316" x2="696" y2="316" stroke="#333333" stroke-width="1.5"/><text x="16" y="186" font-size="12" fill="#666666" text-anchor="middle" transform="rotate(-90 16 186)">wall (ms)</text><rect x="81" y="187" width="186" height="129" fill="#0072B2"/><text x="174" y="182" font-size="11" fill="#222222" text-anchor="middle">523ms</text><text x="174" y="334" font-size="11" fill="#222222" text-anchor="middle">single (native off)</text><rect x="289" y="90" width="186" height="226" fill="#E69F00"/><text x="382" y="85" font-size="11" fill="#222222" text-anchor="middle">915ms</text><text x="382" y="334" font-size="11" fill="#222222" text-anchor="middle">sharded (native off)</text><rect x="497" y="296" width="186" height="20" fill="#009E73"/><text x="590" y="291" font-size="11" fill="#222222" text-anchor="middle">83.8ms</text><text x="590" y="334" font-size="11" fill="#222222" text-anchor="middle">native rate</text></svg>
