<svg xmlns="http://www.w3.org/2000/svg" viewBox="0 0 720 380" width="720" height="380" font-family="-apple-system,Segoe UI,Roboto,Helvetica,Arial,sans-serif"><rect width="720" height="380" fill="white"/><text x="70" y="26" font-size="18" font-weight="600" fill="#222222">Rate range query: modeled peak memory by strategy</text><line x1="70" y1="316" x2="696" y2="316" stroke="#d0d0d0" stroke-width="1"/><text x="62" y="320" font-size="11" fill="#666666" text-anchor="end">0</text><line x1="70" y1="265" x2="696" y2="265" stroke="#d0d0d0" stroke-width="1"/><text x="62" y="269" font-size="11" fill="#666666" text-anchor="end">49.7</text><line x1="70" y1="213" x2="696" y2="213" stroke="#d0d0d0" stroke-width="1"/><text x="62" y="217" font-size="11" fill="#666666" text-anchor="end">99.5</text><line x1="70" y1="160" x2="696" y2="160" stroke="#d0d0d0" stroke-width="1"/><text x="62" y="164" font-size="11" fill="#666666" text-anchor="end">149.2</text><line x1="70" y1="109" x2="696" y2="109" stroke="#d0d0d0" stroke-width="1"/><text x="62" y="113" font-size="11" fill="#666666" text-anchor="end">198.9</text><line x1="70" y1="56" x2="696" y2="56" stroke="#d0d0d0" stroke-width="1"/><text x="62" y="60" font-size="11" fill="#666666" text-anchor="end">248.7</text><line x1="70" y1="56" x2="70" y2="316" stroke="#333333" stroke-width="1.5"/><line x1="70" y1="316" x2="696" y2="316" stroke="#333333" stroke-width="1.5"/><text x="16" y="186" font-size="12" fill="#666666" text-anchor="middle" transform="rotate(-90 16 186)">peak memory (MiB)</text><rect x="81" y="90" width="186" height="226" fill="#0072B2"/><text x="174" y="85" font-size="11" fill="#222222" text-anchor="middle">216MiB</text><text x="174" y="334" font-size="11" fill="#222222" text-anchor="middle">single (native off)</text><rect x="289" y="188" width="186" height="128" fill="#E69F00"/><text x="382" y="183" font-size="11" fill="#222222" text-anchor="middle">123MiB</text><text x="382" y="334" font-size="11" fill="#222222" text-anchor="middle">sharded (native off)</text><rect x="497" y="305" width="186" height="11" fill="#009E73"/><text x="590" y="300" font-size="11" fill="#222222" text-anchor="middle">11MiB</text><text x="590" y="334" font-size="11" fill="#222222" text-anchor="middle">native rate</text></svg>
