<svg xmlns="http://www.w3.org/2000/svg" viewBox="0 0 720 380" width="720" height="380" font-family="-apple-system,Segoe UI,Roboto,Helvetica,Arial,sans-serif"><rect width="720" height="380" fill="white"/><text x="70" y="26" font-size="18" font-weight="600" fill="#222222">range_lwr: wall vs range/step anchors N</text><line x1="70" y1="316" x2="696" y2="316" stroke="#d0d0d0" stroke-width="1"/><text x="62" y="320" font-size="11" fill="#666666" text-anchor="end">0</text><line x1="70" y1="264" x2="696" y2="264" stroke="#d0d0d0" stroke-width="1"/><text x="62" y="268" font-size="11" fill="#666666" text-anchor="end">9.3</text><line x1="70" y1="212" x2="696" y2="212" stroke="#d0d0d0" stroke-width="1"/><text x="62" y="216" font-size="11" fill="#666666" text-anchor="end">18.6</text><line x1="70" y1="160" x2="696" y2="160" stroke="#d0d0d0" stroke-width="1"/><text x="62" y="164" font-size="11" fill="#666666" text-anchor="end">27.9</text><line x1="70" y1="108" x2="696" y2="108" stroke="#d0d0d0" stroke-width="1"/><text x="62" y="112" font-size="11" fill="#666666" text-anchor="end">37.1</text><line x1="70" y1="56" x2="696" y2="56" stroke="#d0d0d0" stroke-width="1"/><text x="62" y="60" font-size="11" fill="#666666" text-anchor="end">46.4</text><line x1="70" y1="56" x2="70" y2="316" stroke="#333333" stroke-width="1.5"/><line x1="70" y1="316" x2="696" y2="316" stroke="#333333" stroke-width="1.5"/><text x="16" y="186" font-size="12" fill="#666666" text-anchor="middle" transform="rotate(-90 16 186)">wall (ms)</text><polyline points="228,181 384,164 696,90" fill="none" stroke="#0072B2" stroke-width="2.5"/><circle cx="228" cy="181" r="4" fill="#0072B2"/><text x="228" y="172" font-size="11" fill="#222222" text-anchor="middle">24.1ms</text><text x="228" y="334" font-size="11" fill="#222222" text-anchor="middle">61</text><circle cx="384" cy="164" r="4" fill="#0072B2"/><text x="384" y="155" font-size="11" fill="#222222" text-anchor="middle">27.1ms</text><text x="384" y="334" font-size="11" fill="#222222" text-anchor="middle">121</text><circle cx="696" cy="90" r="4" fill="#0072B2"/><text x="696" y="81" font-size="11" fill="#222222" text-anchor="middle">40.4ms</text><text x="696" y="334" font-size="11" fill="#222222" text-anchor="middle">241</text><text x="383" y="360" font-size="12" fill="#666666" text-anchor="middle">range/step anchors N</text></svg>
