<svg xmlns="http://www.w3.org/2000/svg" viewBox="0 0 720 380" width="720" height="380" font-family="-apple-system,Segoe UI,Roboto,Helvetica,Arial,sans-serif"><rect width="720" height="380" fill="white"/><text x="70" y="26" font-size="18" font-weight="600" fill="#222222">setop_chain: wall vs chain depth K</text><line x1="70" y1="316" x2="696" y2="316" stroke="#d0d0d0" stroke-width="1"/><text x="62" y="320" font-size="11" fill="#666666" text-anchor="end">0</text><line x1="70" y1="264" x2="696" y2="264" stroke="#d0d0d0" stroke-width="1"/><text x="62" y="268" font-size="11" fill="#666666" text-anchor="end">208.4</text><line x1="70" y1="212" x2="696" y2="212" stroke="#d0d0d0" stroke-width="1"/><text x="62" y="216" font-size="11" fill="#666666" text-anchor="end">416.7</text><line x1="70" y1="160" x2="696" y2="160" stroke="#d0d0d0" stroke-width="1"/><text x="62" y="164" font-size="11" fill="#666666" text-anchor="end">625.1</text><line x1="70" y1="108" x2="696" y2="108" stroke="#d0d0d0" stroke-width="1"/><text x="62" y="112" font-size="11" fill="#666666" text-anchor="end">833.4</text><line x1="70" y1="56" x2="696" y2="56" stroke="#d0d0d0" stroke-width="1"/><text x="62" y="60" font-size="11" fill="#666666" text-anchor="end">1k</text><line x1="70" y1="56" x2="70" y2="316" stroke="#333333" stroke-width="1.5"/><line x1="70" y1="316" x2="696" y2="316" stroke="#333333" stroke-width="1.5"/><text x="16" y="186" font-size="12" fill="#666666" text-anchor="middle" transform="rotate(-90 16 186)">wall (ms)</text><polyline points="226,297 383,262 696,90" fill="none" stroke="#0072B2" stroke-width="2.5"/><circle cx="226" cy="297" r="4" fill="#0072B2"/><text x="226" y="288" font-size="11" fill="#222222" text-anchor="middle">78.7ms</text><text x="226" y="334" font-size="11" fill="#222222" text-anchor="middle">2</text><circle cx="383" cy="262" r="4" fill="#0072B2"/><text x="383" y="253" font-size="11" fill="#222222" text-anchor="middle">219ms</text><text x="383" y="334" font-size="11" fill="#222222" text-anchor="middle">4</text><circle cx="696" cy="90" r="4" fill="#0072B2"/><text x="696" y="81" font-size="11" fill="#222222" text-anchor="middle">906ms</text><text x="696" y="334" font-size="11" fill="#222222" text-anchor="middle">8</text><text x="383" y="360" font-size="12" fill="#666666" text-anchor="middle">chain depth K</text></svg>
