<svg xmlns="http://www.w3.org/2000/svg" viewBox="0 0 720 380" width="720" height="380" font-family="-apple-system,Segoe UI,Roboto,Helvetica,Arial,sans-serif"><rect width="720" height="380" fill="white"/><text x="70" y="26" font-size="18" font-weight="600" fill="#222222">setop_chain: wall vs chain depth K</text><line x1="70" y1="316" x2="696" y2="316" stroke="#d0d0d0" stroke-width="1"/><text x="62" y="320" font-size="11" fill="#666666" text-anchor="end">0</text><line x1="70" y1="265" x2="696" y2="265" stroke="#d0d0d0" stroke-width="1"/><text x="62" y="269" font-size="11" fill="#666666" text-anchor="end">78.6</text><line x1="70" y1="213" x2="696" y2="213" stroke="#d0d0d0" stroke-width="1"/><text x="62" y="217" font-size="11" fill="#666666" text-anchor="end">157.2</text><line x1="70" y1="160" x2="696" y2="160" stroke="#d0d0d0" stroke-width="1"/><text x="62" y="164" font-size="11" fill="#666666" text-anchor="end">235.8</text><line x1="70" y1="109" x2="696" y2="109" stroke="#d0d0d0" stroke-width="1"/><text x="62" y="113" font-size="11" fill="#666666" text-anchor="end">314.5</text><line x1="70" y1="56" x2="696" y2="56" stroke="#d0d0d0" stroke-width="1"/><text x="62" y="60" font-size="11" fill="#666666" text-anchor="end">393.1</text><line x1="70" y1="56" x2="70" y2="316" stroke="#333333" stroke-width="1.5"/><line x1="70" y1="316" x2="696" y2="316" stroke="#333333" stroke-width="1.5"/><text x="16" y="186" font-size="12" fill="#666666" text-anchor="middle" transform="rotate(-90 16 186)">wall (ms)</text><polyline points="226,291 383,234 696,90" fill="none" stroke="#0072B2" stroke-width="2.5"/><circle cx="226" cy="291" r="4" fill="#0072B2"/><text x="226" y="282" font-size="11" fill="#222222" text-anchor="middle">38.3ms</text><text x="226" y="334" font-size="11" fill="#222222" text-anchor="middle">2</text><circle cx="383" cy="234" r="4" fill="#0072B2"/><text x="383" y="225" font-size="11" fill="#222222" text-anchor="middle">125ms</text><text x="383" y="334" font-size="11" fill="#222222" text-anchor="middle">4</text><circle cx="696" cy="90" r="4" fill="#0072B2"/><text x="696" y="81" font-size="11" fill="#222222" text-anchor="middle">342ms</text><text x="696" y="334" font-size="11" fill="#222222" text-anchor="middle">8</text><text x="383" y="360" font-size="12" fill="#666666" text-anchor="middle">chain depth K</text></svg>
